<mxfile host="Electron" modified="2023-11-22T10:44:28.717Z" agent="Mozilla/5.0 (X11; Linux x86_64) AppleWebKit/537.36 (KHTML, like Gecko) draw.io/22.0.2 Chrome/114.0.5735.289 Electron/25.8.4 Safari/537.36" etag="z5l9MmnThVXFCQOgx6yB" version="22.0.2" type="device">
  <diagram name="Strona-1" id="_aOcEcRjS-uaqIEThYqZ">
    <mxGraphModel dx="1434" dy="851" grid="1" gridSize="10" guides="1" tooltips="1" connect="1" arrows="1" fold="1" page="1" pageScale="1" pageWidth="827" pageHeight="1169" math="0" shadow="0">
      <root>
        <mxCell id="0" />
        <mxCell id="1" parent="0" />
        <mxCell id="hiEzIFjYpvtMCPedpZwh-16" value="" style="rounded=0;whiteSpace=wrap;html=1;" vertex="1" parent="1">
          <mxGeometry x="80" y="180" width="180" height="570" as="geometry" />
        </mxCell>
        <mxCell id="hiEzIFjYpvtMCPedpZwh-43" style="edgeStyle=orthogonalEdgeStyle;rounded=0;orthogonalLoop=1;jettySize=auto;html=1;exitX=1;exitY=0.5;exitDx=0;exitDy=0;entryX=0;entryY=0.25;entryDx=0;entryDy=0;endArrow=none;endFill=0;" edge="1" parent="1" source="hiEzIFjYpvtMCPedpZwh-1" target="hiEzIFjYpvtMCPedpZwh-17">
          <mxGeometry relative="1" as="geometry" />
        </mxCell>
        <mxCell id="hiEzIFjYpvtMCPedpZwh-1" value="+12V" style="rounded=0;whiteSpace=wrap;html=1;" vertex="1" parent="1">
          <mxGeometry x="160" y="190" width="90" height="30" as="geometry" />
        </mxCell>
        <mxCell id="hiEzIFjYpvtMCPedpZwh-44" style="edgeStyle=orthogonalEdgeStyle;rounded=0;orthogonalLoop=1;jettySize=auto;html=1;exitX=1;exitY=0.5;exitDx=0;exitDy=0;entryX=0;entryY=0.75;entryDx=0;entryDy=0;endArrow=none;endFill=0;" edge="1" parent="1" source="hiEzIFjYpvtMCPedpZwh-2" target="hiEzIFjYpvtMCPedpZwh-17">
          <mxGeometry relative="1" as="geometry">
            <mxPoint x="300" y="245.20000000000005" as="targetPoint" />
          </mxGeometry>
        </mxCell>
        <mxCell id="hiEzIFjYpvtMCPedpZwh-2" value="GND" style="rounded=0;whiteSpace=wrap;html=1;" vertex="1" parent="1">
          <mxGeometry x="160" y="230" width="90" height="30" as="geometry" />
        </mxCell>
        <mxCell id="hiEzIFjYpvtMCPedpZwh-3" value="SW_NO" style="rounded=0;whiteSpace=wrap;html=1;" vertex="1" parent="1">
          <mxGeometry x="160" y="270" width="90" height="30" as="geometry" />
        </mxCell>
        <mxCell id="hiEzIFjYpvtMCPedpZwh-21" style="edgeStyle=orthogonalEdgeStyle;rounded=0;orthogonalLoop=1;jettySize=auto;html=1;exitX=1;exitY=0.5;exitDx=0;exitDy=0;endArrow=none;endFill=0;" edge="1" parent="1" source="hiEzIFjYpvtMCPedpZwh-4">
          <mxGeometry relative="1" as="geometry">
            <mxPoint x="420" y="290" as="targetPoint" />
          </mxGeometry>
        </mxCell>
        <mxCell id="hiEzIFjYpvtMCPedpZwh-4" value="SW_C" style="rounded=0;whiteSpace=wrap;html=1;" vertex="1" parent="1">
          <mxGeometry x="160" y="310" width="90" height="30" as="geometry" />
        </mxCell>
        <mxCell id="hiEzIFjYpvtMCPedpZwh-5" value="SW_NC" style="rounded=0;whiteSpace=wrap;html=1;" vertex="1" parent="1">
          <mxGeometry x="160" y="350" width="90" height="30" as="geometry" />
        </mxCell>
        <mxCell id="hiEzIFjYpvtMCPedpZwh-6" value="LED+" style="rounded=0;whiteSpace=wrap;html=1;" vertex="1" parent="1">
          <mxGeometry x="160" y="390" width="90" height="30" as="geometry" />
        </mxCell>
        <mxCell id="hiEzIFjYpvtMCPedpZwh-31" style="edgeStyle=orthogonalEdgeStyle;rounded=0;orthogonalLoop=1;jettySize=auto;html=1;exitX=1;exitY=0.5;exitDx=0;exitDy=0;endArrow=none;endFill=0;" edge="1" parent="1" source="hiEzIFjYpvtMCPedpZwh-7">
          <mxGeometry relative="1" as="geometry">
            <mxPoint x="430" y="410" as="targetPoint" />
            <Array as="points">
              <mxPoint x="430" y="445" />
            </Array>
          </mxGeometry>
        </mxCell>
        <mxCell id="hiEzIFjYpvtMCPedpZwh-7" value="LED-" style="rounded=0;whiteSpace=wrap;html=1;" vertex="1" parent="1">
          <mxGeometry x="160" y="430" width="90" height="30" as="geometry" />
        </mxCell>
        <mxCell id="hiEzIFjYpvtMCPedpZwh-8" value="ST_IN" style="rounded=0;whiteSpace=wrap;html=1;" vertex="1" parent="1">
          <mxGeometry x="160" y="470" width="90" height="30" as="geometry" />
        </mxCell>
        <mxCell id="hiEzIFjYpvtMCPedpZwh-9" value="ST_PT" style="rounded=0;whiteSpace=wrap;html=1;" vertex="1" parent="1">
          <mxGeometry x="160" y="510" width="90" height="30" as="geometry" />
        </mxCell>
        <mxCell id="hiEzIFjYpvtMCPedpZwh-10" value="EARTH" style="rounded=0;whiteSpace=wrap;html=1;" vertex="1" parent="1">
          <mxGeometry x="160" y="550" width="90" height="30" as="geometry" />
        </mxCell>
        <mxCell id="hiEzIFjYpvtMCPedpZwh-35" style="edgeStyle=orthogonalEdgeStyle;rounded=0;orthogonalLoop=1;jettySize=auto;html=1;exitX=1;exitY=0.5;exitDx=0;exitDy=0;entryX=0.5;entryY=0;entryDx=0;entryDy=0;endArrow=none;endFill=0;" edge="1" parent="1" source="hiEzIFjYpvtMCPedpZwh-12" target="hiEzIFjYpvtMCPedpZwh-34">
          <mxGeometry relative="1" as="geometry">
            <Array as="points">
              <mxPoint x="302" y="605" />
              <mxPoint x="302" y="590" />
              <mxPoint x="384" y="590" />
            </Array>
          </mxGeometry>
        </mxCell>
        <mxCell id="hiEzIFjYpvtMCPedpZwh-12" value="GND" style="rounded=0;whiteSpace=wrap;html=1;" vertex="1" parent="1">
          <mxGeometry x="160" y="590" width="90" height="30" as="geometry" />
        </mxCell>
        <mxCell id="hiEzIFjYpvtMCPedpZwh-36" style="edgeStyle=orthogonalEdgeStyle;rounded=0;orthogonalLoop=1;jettySize=auto;html=1;exitX=1;exitY=0.5;exitDx=0;exitDy=0;entryX=0.5;entryY=1;entryDx=0;entryDy=0;endArrow=none;endFill=0;" edge="1" parent="1" source="hiEzIFjYpvtMCPedpZwh-13" target="hiEzIFjYpvtMCPedpZwh-34">
          <mxGeometry relative="1" as="geometry">
            <Array as="points">
              <mxPoint x="302" y="645" />
              <mxPoint x="302" y="670" />
              <mxPoint x="384" y="670" />
            </Array>
          </mxGeometry>
        </mxCell>
        <mxCell id="hiEzIFjYpvtMCPedpZwh-13" value="+12V" style="rounded=0;whiteSpace=wrap;html=1;" vertex="1" parent="1">
          <mxGeometry x="160" y="630" width="90" height="30" as="geometry" />
        </mxCell>
        <mxCell id="hiEzIFjYpvtMCPedpZwh-39" style="edgeStyle=orthogonalEdgeStyle;rounded=0;orthogonalLoop=1;jettySize=auto;html=1;exitX=1;exitY=0.5;exitDx=0;exitDy=0;entryX=0;entryY=0.5;entryDx=0;entryDy=0;endArrow=none;endFill=0;" edge="1" parent="1" source="hiEzIFjYpvtMCPedpZwh-14" target="hiEzIFjYpvtMCPedpZwh-34">
          <mxGeometry relative="1" as="geometry">
            <Array as="points">
              <mxPoint x="350" y="685" />
              <mxPoint x="350" y="630" />
            </Array>
          </mxGeometry>
        </mxCell>
        <mxCell id="hiEzIFjYpvtMCPedpZwh-14" value="PWM" style="rounded=0;whiteSpace=wrap;html=1;" vertex="1" parent="1">
          <mxGeometry x="160" y="670" width="90" height="30" as="geometry" />
        </mxCell>
        <mxCell id="hiEzIFjYpvtMCPedpZwh-41" style="edgeStyle=orthogonalEdgeStyle;rounded=0;orthogonalLoop=1;jettySize=auto;html=1;exitX=1;exitY=0.5;exitDx=0;exitDy=0;entryX=1;entryY=0.5;entryDx=0;entryDy=0;endArrow=none;endFill=0;" edge="1" parent="1" source="hiEzIFjYpvtMCPedpZwh-15" target="hiEzIFjYpvtMCPedpZwh-34">
          <mxGeometry relative="1" as="geometry">
            <Array as="points">
              <mxPoint x="420" y="725" />
              <mxPoint x="420" y="630" />
            </Array>
          </mxGeometry>
        </mxCell>
        <mxCell id="hiEzIFjYpvtMCPedpZwh-15" value="TAHO" style="rounded=0;whiteSpace=wrap;html=1;" vertex="1" parent="1">
          <mxGeometry x="160" y="710" width="90" height="30" as="geometry" />
        </mxCell>
        <mxCell id="hiEzIFjYpvtMCPedpZwh-17" value="External DC&amp;nbsp;&lt;br&gt;PSU&lt;br&gt;+12V 2.5A" style="rounded=0;whiteSpace=wrap;html=1;" vertex="1" parent="1">
          <mxGeometry x="310" y="190" width="120" height="70" as="geometry" />
        </mxCell>
        <mxCell id="hiEzIFjYpvtMCPedpZwh-22" style="edgeStyle=orthogonalEdgeStyle;rounded=0;orthogonalLoop=1;jettySize=auto;html=1;exitX=1;exitY=0.84;exitDx=0;exitDy=0;endArrow=none;endFill=0;" edge="1" parent="1" source="hiEzIFjYpvtMCPedpZwh-18">
          <mxGeometry relative="1" as="geometry">
            <mxPoint x="420" y="290" as="targetPoint" />
          </mxGeometry>
        </mxCell>
        <mxCell id="hiEzIFjYpvtMCPedpZwh-18" value="" style="html=1;shape=mxgraph.electrical.electro-mechanical.switchDisconnector;aspect=fixed;elSwitchState=off;" vertex="1" parent="1">
          <mxGeometry x="320" y="270" width="75" height="20" as="geometry" />
        </mxCell>
        <mxCell id="hiEzIFjYpvtMCPedpZwh-30" style="edgeStyle=orthogonalEdgeStyle;rounded=0;orthogonalLoop=1;jettySize=auto;html=1;exitX=0;exitY=0.5;exitDx=0;exitDy=0;exitPerimeter=0;entryX=1;entryY=0.5;entryDx=0;entryDy=0;endArrow=none;endFill=0;" edge="1" parent="1" source="hiEzIFjYpvtMCPedpZwh-19" target="hiEzIFjYpvtMCPedpZwh-6">
          <mxGeometry relative="1" as="geometry" />
        </mxCell>
        <mxCell id="hiEzIFjYpvtMCPedpZwh-33" style="edgeStyle=orthogonalEdgeStyle;rounded=0;orthogonalLoop=1;jettySize=auto;html=1;exitX=1;exitY=0.5;exitDx=0;exitDy=0;exitPerimeter=0;endArrow=none;endFill=0;" edge="1" parent="1" source="hiEzIFjYpvtMCPedpZwh-19">
          <mxGeometry relative="1" as="geometry">
            <mxPoint x="430" y="410" as="targetPoint" />
            <Array as="points">
              <mxPoint x="430" y="405" />
            </Array>
          </mxGeometry>
        </mxCell>
        <mxCell id="hiEzIFjYpvtMCPedpZwh-19" value="" style="pointerEvents=1;fillColor=strokeColor;verticalLabelPosition=bottom;shadow=0;dashed=0;align=center;html=1;verticalAlign=top;shape=mxgraph.electrical.diodes.diode;" vertex="1" parent="1">
          <mxGeometry x="327.5" y="395" width="60" height="20" as="geometry" />
        </mxCell>
        <mxCell id="hiEzIFjYpvtMCPedpZwh-24" style="edgeStyle=orthogonalEdgeStyle;rounded=0;orthogonalLoop=1;jettySize=auto;html=1;exitX=0;exitY=0.84;exitDx=0;exitDy=0;entryX=1.001;entryY=0.563;entryDx=0;entryDy=0;entryPerimeter=0;endArrow=none;endFill=0;" edge="1" parent="1" source="hiEzIFjYpvtMCPedpZwh-18" target="hiEzIFjYpvtMCPedpZwh-3">
          <mxGeometry relative="1" as="geometry" />
        </mxCell>
        <mxCell id="hiEzIFjYpvtMCPedpZwh-25" value="" style="edgeStyle=none;orthogonalLoop=1;jettySize=auto;html=1;rounded=0;" edge="1" parent="1">
          <mxGeometry width="80" relative="1" as="geometry">
            <mxPoint x="347.5" y="390" as="sourcePoint" />
            <mxPoint x="357.5" y="380" as="targetPoint" />
            <Array as="points" />
          </mxGeometry>
        </mxCell>
        <mxCell id="hiEzIFjYpvtMCPedpZwh-26" value="" style="edgeStyle=none;orthogonalLoop=1;jettySize=auto;html=1;rounded=0;" edge="1" parent="1">
          <mxGeometry width="80" relative="1" as="geometry">
            <mxPoint x="357.5" y="390" as="sourcePoint" />
            <mxPoint x="367.5" y="380" as="targetPoint" />
            <Array as="points" />
          </mxGeometry>
        </mxCell>
        <mxCell id="hiEzIFjYpvtMCPedpZwh-34" value="M" style="verticalLabelPosition=middle;shadow=0;dashed=0;align=center;html=1;verticalAlign=middle;strokeWidth=1;shape=ellipse;aspect=fixed;fontSize=35;" vertex="1" parent="1">
          <mxGeometry x="354" y="600" width="60" height="60" as="geometry" />
        </mxCell>
        <mxCell id="hiEzIFjYpvtMCPedpZwh-42" value="4 Wire PWM Fan" style="text;strokeColor=none;align=center;fillColor=none;html=1;verticalAlign=middle;whiteSpace=wrap;rounded=0;" vertex="1" parent="1">
          <mxGeometry x="414" y="590" width="60" height="30" as="geometry" />
        </mxCell>
        <mxCell id="hiEzIFjYpvtMCPedpZwh-45" value="&lt;font style=&quot;font-size: 18px;&quot;&gt;Fumex Driver&lt;/font&gt;" style="text;strokeColor=none;align=center;fillColor=none;html=1;verticalAlign=middle;whiteSpace=wrap;rounded=0;rotation=-90;" vertex="1" parent="1">
          <mxGeometry x="60" y="450" width="140" height="30" as="geometry" />
        </mxCell>
      </root>
    </mxGraphModel>
  </diagram>
</mxfile>
